<?xml version="1.0" encoding="UTF-8"?>
<svg xmlns="http://www.w3.org/2000/svg" xmlns:xlink="http://www.w3.org/1999/xlink" width="60px" height="60px" viewBox="0 0 60 60" version="1.1">
<g id="surface1">
<rect x="0" y="0" width="60" height="60" style="fill:rgb(31.764706%,16.862745%,83.137255%);fill-opacity:1;stroke:none;"/>
<path style=" stroke:none;fill-rule:nonzero;fill:rgb(100%,100%,100%);fill-opacity:1;" d="M 10.695312 38.332031 C 10.269531 38.332031 9.910156 38.191406 9.613281 37.910156 C 9.316406 37.621094 9.167969 37.273438 9.167969 36.875 C 9.167969 36.46875 9.316406 36.121094 9.613281 35.832031 C 9.910156 35.542969 10.269531 35.398438 10.695312 35.398438 C 11.125 35.398438 11.488281 35.542969 11.785156 35.832031 C 12.089844 36.121094 12.242188 36.46875 12.242188 36.875 C 12.242188 37.273438 12.089844 37.621094 11.785156 37.910156 C 11.488281 38.191406 11.125 38.332031 10.695312 38.332031 Z M 10.695312 38.332031 "/>
<path style=" stroke:none;fill-rule:nonzero;fill:rgb(100%,100%,100%);fill-opacity:1;" d="M 27.652344 38.09375 L 24.894531 38.09375 L 17.628906 26.632812 C 17.445312 26.34375 17.292969 26.042969 17.175781 25.730469 L 17.109375 25.730469 C 17.167969 26.0625 17.195312 26.777344 17.195312 27.871094 L 17.195312 38.09375 L 14.757812 38.09375 L 14.757812 22.5 L 17.695312 22.5 L 24.714844 33.691406 C 25.011719 34.152344 25.203125 34.472656 25.289062 34.648438 L 25.332031 34.648438 C 25.261719 34.234375 25.226562 33.535156 25.226562 32.546875 L 25.226562 22.5 L 27.652344 22.5 Z M 27.652344 38.09375 "/>
<path style=" stroke:none;fill-rule:nonzero;fill:rgb(100%,100%,100%);fill-opacity:1;" d="M 39.53125 38.09375 L 30.996094 38.09375 L 30.996094 22.5 L 39.195312 22.5 L 39.195312 24.695312 L 33.519531 24.695312 L 33.519531 29.113281 L 38.746094 29.113281 L 38.746094 31.296875 L 33.519531 31.296875 L 33.519531 35.910156 L 39.53125 35.910156 Z M 39.53125 38.09375 "/>
<path style=" stroke:none;fill-rule:nonzero;fill:rgb(100%,100%,100%);fill-opacity:1;" d="M 51.667969 24.695312 L 47.296875 24.695312 L 47.296875 38.09375 L 44.773438 38.09375 L 44.773438 24.695312 L 40.414062 24.695312 L 40.414062 22.5 L 51.667969 22.5 Z M 51.667969 24.695312 "/>
</g>
</svg>
