<?xml version="1.0" encoding="UTF-8"?>
<svg xmlns="http://www.w3.org/2000/svg" xmlns:xlink="http://www.w3.org/1999/xlink" width="32px" height="32px" viewBox="0 0 32 32" version="1.1">
<g id="surface1">
<rect x="0" y="0" width="32" height="32" style="fill:rgb(31.764706%,16.862745%,83.137255%);fill-opacity:1;stroke:none;"/>
<path style=" stroke:none;fill-rule:nonzero;fill:rgb(100%,100%,100%);fill-opacity:1;" d="M 5.703125 20.445312 C 5.476562 20.445312 5.285156 20.367188 5.125 20.21875 C 4.96875 20.0625 4.890625 19.878906 4.890625 19.667969 C 4.890625 19.449219 4.96875 19.265625 5.125 19.109375 C 5.285156 18.957031 5.476562 18.878906 5.703125 18.878906 C 5.933594 18.878906 6.128906 18.957031 6.285156 19.109375 C 6.449219 19.265625 6.527344 19.449219 6.527344 19.667969 C 6.527344 19.878906 6.449219 20.0625 6.285156 20.21875 C 6.128906 20.367188 5.933594 20.445312 5.703125 20.445312 Z M 5.703125 20.445312 "/>
<path style=" stroke:none;fill-rule:nonzero;fill:rgb(100%,100%,100%);fill-opacity:1;" d="M 14.75 20.316406 L 13.277344 20.316406 L 9.402344 14.203125 C 9.304688 14.050781 9.222656 13.890625 9.160156 13.722656 L 9.125 13.722656 C 9.15625 13.902344 9.171875 14.28125 9.171875 14.863281 L 9.171875 20.316406 L 7.871094 20.316406 L 7.871094 12 L 9.4375 12 L 13.183594 17.96875 C 13.339844 18.214844 13.441406 18.386719 13.488281 18.476562 L 13.507812 18.476562 C 13.472656 18.257812 13.453125 17.886719 13.453125 17.359375 L 13.453125 12 L 14.75 12 Z M 14.75 20.316406 "/>
<path style=" stroke:none;fill-rule:nonzero;fill:rgb(100%,100%,100%);fill-opacity:1;" d="M 21.085938 20.316406 L 16.53125 20.316406 L 16.53125 12 L 20.902344 12 L 20.902344 13.171875 L 17.875 13.171875 L 17.875 15.527344 L 20.664062 15.527344 L 20.664062 16.691406 L 17.875 16.691406 L 17.875 19.152344 L 21.085938 19.152344 Z M 21.085938 20.316406 "/>
<path style=" stroke:none;fill-rule:nonzero;fill:rgb(100%,100%,100%);fill-opacity:1;" d="M 27.554688 13.171875 L 25.226562 13.171875 L 25.226562 20.316406 L 23.878906 20.316406 L 23.878906 13.171875 L 21.554688 13.171875 L 21.554688 12 L 27.554688 12 Z M 27.554688 13.171875 "/>
</g>
</svg>
